<svg id="Layer_1" data-name="Layer 1" xmlns="http://www.w3.org/2000/svg" viewBox="0 0 192 192"><title>jacuzzi_blk</title><path d="M185.1,86.5a14.7,14.7,0,0,0-14.8-14.7H91.9V68.4H46v3.4H21.7a15,15,0,0,0-10.5,4.3A14.6,14.6,0,0,0,6.9,86.5a14.9,14.9,0,0,0,10,14V156l3.9.7a486.4,486.4,0,0,0,79.3,6.5c22.2,0,46.6-1.6,70.1-6.5l3.7-.8,1.1-55.4a15.1,15.1,0,0,0,5.8-3.5A14.7,14.7,0,0,0,185.1,86.5Zm-36.8,14.8v49.3c-5.3.7-10.6,1.3-15.9,1.7v-51ZM122.8,153l-13.7.5V101.3h13.7Zm-23.3.5-14.8-.2V126.9h7.2V101.3h7.6ZM45.7,101.3l-.2,25.6h6.3v24.2L42,150V101.3Zm6.2,19.2v-6.8H85.5v6.8Zm9.5,6.4H75.1v26l-13.7-1ZM85.5,74.8V99.4H52.1V74.8ZM18,82.9a5.1,5.1,0,0,1,3.7-1.5H45.8V91.7h-24a5.2,5.2,0,0,1-5.2-5.2A5.1,5.1,0,0,1,18,82.9Zm8.5,18.4h5.9v47.5l-5.9-.9Zm131.4,47.9V101.3h7.5l-.9,46.7Zm16.1-59a5.1,5.1,0,0,1-3.7,1.5H91.9V81.4h78.4a5.2,5.2,0,0,1,3.7,8.8Z"/><path d="M93.9,50.2c1.7,2,3.2,4,2.6,7.2a2.5,2.5,0,0,0,2,3H99a2.5,2.5,0,0,0,2.5-2c1.1-5.6-1.7-9.1-3.6-11.4l-.2-.3c-4-4.9-3.9-9.4.3-13.6a2.5,2.5,0,0,0,0-3.6,2.6,2.6,0,0,0-1.8-.7,2.4,2.4,0,0,0-1.8.7c-6,6-6.3,13.5-.7,20.4Z"/><path d="M69.7,50.2c1.6,2,3.2,4,2.5,7.2a2.7,2.7,0,0,0,2.1,3h.4a2.6,2.6,0,0,0,2.6-2c1-5.6-1.8-9.1-3.7-11.4l-.2-.3c-4-4.9-3.9-9.4.3-13.6a2.5,2.5,0,0,0,0-3.6,2.4,2.4,0,0,0-1.8-.7,2.6,2.6,0,0,0-1.8.7c-6,6-6.2,13.5-.6,20.4Z"/><path d="M114.3,50.2c1.6,2,3.1,4,2.5,7.2a2.7,2.7,0,0,0,2.1,3h.4a2.5,2.5,0,0,0,2.5-2c1.1-5.6-1.7-9.1-3.6-11.4l-.2-.3c-4-4.9-3.9-9.4.3-13.6a2.5,2.5,0,0,0,0-3.6,2.4,2.4,0,0,0-1.8-.7,2.6,2.6,0,0,0-1.8.7c-6,6-6.2,13.5-.6,20.4Z"/></svg>